<mxfile host="app.diagrams.net" agent="Mozilla/5.0 (Windows NT 10.0; Win64; x64; rv:129.0) Gecko/20100101 Firefox/129.0" version="24.7.5">
  <diagram name="PÃ¡gina-1" id="2crBmEEUw5vN4-sz8Spd">
    <mxGraphModel dx="2074" dy="1176" grid="0" gridSize="10" guides="1" tooltips="1" connect="1" arrows="1" fold="1" page="0" pageScale="1" pageWidth="827" pageHeight="1169" math="0" shadow="0">
      <root>
        <mxCell id="0" />
        <mxCell id="1" parent="0" />
        <mxCell id="iR6kMIGFltrkhcfpv41R-1" value="cliente" style="rounded=0;whiteSpace=wrap;html=1;" vertex="1" parent="1">
          <mxGeometry x="108" y="-31" width="120" height="60" as="geometry" />
        </mxCell>
        <mxCell id="iR6kMIGFltrkhcfpv41R-2" value="rut" style="ellipse;whiteSpace=wrap;html=1;" vertex="1" parent="1">
          <mxGeometry x="-20" y="-109" width="68" height="69" as="geometry" />
        </mxCell>
        <mxCell id="iR6kMIGFltrkhcfpv41R-6" value="" style="endArrow=none;html=1;rounded=0;fontSize=12;startSize=8;endSize=8;curved=1;entryX=0;entryY=0;entryDx=0;entryDy=0;" edge="1" parent="1" source="iR6kMIGFltrkhcfpv41R-2" target="iR6kMIGFltrkhcfpv41R-1">
          <mxGeometry width="50" height="50" relative="1" as="geometry">
            <mxPoint x="175" y="225" as="sourcePoint" />
            <mxPoint x="225" y="175" as="targetPoint" />
          </mxGeometry>
        </mxCell>
        <mxCell id="iR6kMIGFltrkhcfpv41R-7" value="nombre" style="ellipse;whiteSpace=wrap;html=1;aspect=fixed;" vertex="1" parent="1">
          <mxGeometry x="-16" y="4" width="71" height="71" as="geometry" />
        </mxCell>
        <mxCell id="iR6kMIGFltrkhcfpv41R-8" value="" style="endArrow=none;html=1;rounded=0;fontSize=12;startSize=8;endSize=8;curved=1;exitX=1;exitY=0;exitDx=0;exitDy=0;entryX=0;entryY=0.5;entryDx=0;entryDy=0;" edge="1" parent="1" source="iR6kMIGFltrkhcfpv41R-7" target="iR6kMIGFltrkhcfpv41R-1">
          <mxGeometry width="50" height="50" relative="1" as="geometry">
            <mxPoint x="175" y="225" as="sourcePoint" />
            <mxPoint x="225" y="175" as="targetPoint" />
          </mxGeometry>
        </mxCell>
        <mxCell id="iR6kMIGFltrkhcfpv41R-9" value="compra" style="rhombus;whiteSpace=wrap;html=1;" vertex="1" parent="1">
          <mxGeometry x="128" y="73" width="80" height="80" as="geometry" />
        </mxCell>
        <mxCell id="iR6kMIGFltrkhcfpv41R-10" value="" style="endArrow=none;html=1;rounded=0;fontSize=12;startSize=8;endSize=8;curved=1;entryX=0.5;entryY=1;entryDx=0;entryDy=0;exitX=0.5;exitY=0;exitDx=0;exitDy=0;" edge="1" parent="1" source="iR6kMIGFltrkhcfpv41R-9" target="iR6kMIGFltrkhcfpv41R-1">
          <mxGeometry width="50" height="50" relative="1" as="geometry">
            <mxPoint x="175" y="225" as="sourcePoint" />
            <mxPoint x="225" y="175" as="targetPoint" />
          </mxGeometry>
        </mxCell>
        <mxCell id="iR6kMIGFltrkhcfpv41R-13" value="venta" style="rounded=0;whiteSpace=wrap;html=1;" vertex="1" parent="1">
          <mxGeometry x="108" y="189" width="120" height="60" as="geometry" />
        </mxCell>
        <mxCell id="iR6kMIGFltrkhcfpv41R-14" value="" style="endArrow=none;html=1;rounded=0;fontSize=12;startSize=8;endSize=8;curved=1;entryX=0.5;entryY=1;entryDx=0;entryDy=0;exitX=0.5;exitY=0;exitDx=0;exitDy=0;" edge="1" parent="1" source="iR6kMIGFltrkhcfpv41R-13" target="iR6kMIGFltrkhcfpv41R-9">
          <mxGeometry width="50" height="50" relative="1" as="geometry">
            <mxPoint x="175" y="225" as="sourcePoint" />
            <mxPoint x="188" y="160" as="targetPoint" />
          </mxGeometry>
        </mxCell>
        <mxCell id="iR6kMIGFltrkhcfpv41R-15" value="fecha" style="ellipse;whiteSpace=wrap;html=1;aspect=fixed;" vertex="1" parent="1">
          <mxGeometry x="2" y="122" width="67" height="67" as="geometry" />
        </mxCell>
        <mxCell id="iR6kMIGFltrkhcfpv41R-16" value="" style="endArrow=none;html=1;rounded=0;fontSize=12;startSize=8;endSize=8;curved=1;exitX=1;exitY=0.5;exitDx=0;exitDy=0;entryX=0;entryY=0.25;entryDx=0;entryDy=0;" edge="1" parent="1" source="iR6kMIGFltrkhcfpv41R-15" target="iR6kMIGFltrkhcfpv41R-13">
          <mxGeometry width="50" height="50" relative="1" as="geometry">
            <mxPoint x="175" y="225" as="sourcePoint" />
            <mxPoint x="225" y="175" as="targetPoint" />
          </mxGeometry>
        </mxCell>
        <mxCell id="iR6kMIGFltrkhcfpv41R-17" value="idVenta" style="ellipse;whiteSpace=wrap;html=1;aspect=fixed;" vertex="1" parent="1">
          <mxGeometry x="2" y="204" width="67" height="67" as="geometry" />
        </mxCell>
        <mxCell id="iR6kMIGFltrkhcfpv41R-18" value="" style="endArrow=none;html=1;rounded=0;fontSize=12;startSize=8;endSize=8;curved=1;exitX=1;exitY=0.5;exitDx=0;exitDy=0;entryX=0;entryY=0.5;entryDx=0;entryDy=0;" edge="1" parent="1" source="iR6kMIGFltrkhcfpv41R-17" target="iR6kMIGFltrkhcfpv41R-13">
          <mxGeometry width="50" height="50" relative="1" as="geometry">
            <mxPoint x="175" y="225" as="sourcePoint" />
            <mxPoint x="225" y="175" as="targetPoint" />
          </mxGeometry>
        </mxCell>
        <mxCell id="iR6kMIGFltrkhcfpv41R-20" value="tiene" style="rhombus;whiteSpace=wrap;html=1;" vertex="1" parent="1">
          <mxGeometry x="128" y="285" width="80" height="80" as="geometry" />
        </mxCell>
        <mxCell id="iR6kMIGFltrkhcfpv41R-21" value="detalle" style="rounded=0;whiteSpace=wrap;html=1;" vertex="1" parent="1">
          <mxGeometry x="121.5" y="391" width="93" height="44" as="geometry" />
        </mxCell>
        <mxCell id="iR6kMIGFltrkhcfpv41R-22" value="detalle" style="ellipse;whiteSpace=wrap;html=1;" vertex="1" parent="1">
          <mxGeometry x="-31" y="349" width="76" height="55" as="geometry" />
        </mxCell>
        <mxCell id="iR6kMIGFltrkhcfpv41R-23" value="cantidad" style="ellipse;whiteSpace=wrap;html=1;" vertex="1" parent="1">
          <mxGeometry x="-29" y="429" width="77" height="45" as="geometry" />
        </mxCell>
        <mxCell id="iR6kMIGFltrkhcfpv41R-25" value="" style="endArrow=none;html=1;rounded=0;fontSize=12;startSize=8;endSize=8;curved=1;exitX=0.5;exitY=1;exitDx=0;exitDy=0;entryX=0.5;entryY=0;entryDx=0;entryDy=0;" edge="1" parent="1" source="iR6kMIGFltrkhcfpv41R-13" target="iR6kMIGFltrkhcfpv41R-20">
          <mxGeometry width="50" height="50" relative="1" as="geometry">
            <mxPoint x="175" y="225" as="sourcePoint" />
            <mxPoint x="225" y="175" as="targetPoint" />
          </mxGeometry>
        </mxCell>
        <mxCell id="iR6kMIGFltrkhcfpv41R-26" value="" style="endArrow=none;html=1;rounded=0;fontSize=12;startSize=8;endSize=8;curved=1;exitX=0.5;exitY=1;exitDx=0;exitDy=0;entryX=0.5;entryY=0;entryDx=0;entryDy=0;" edge="1" parent="1" source="iR6kMIGFltrkhcfpv41R-20" target="iR6kMIGFltrkhcfpv41R-21">
          <mxGeometry width="50" height="50" relative="1" as="geometry">
            <mxPoint x="175" y="225" as="sourcePoint" />
            <mxPoint x="225" y="175" as="targetPoint" />
          </mxGeometry>
        </mxCell>
        <mxCell id="iR6kMIGFltrkhcfpv41R-29" value="" style="endArrow=none;html=1;rounded=0;fontSize=12;startSize=8;endSize=8;curved=1;exitX=1;exitY=0.5;exitDx=0;exitDy=0;entryX=0;entryY=0;entryDx=0;entryDy=0;" edge="1" parent="1" source="iR6kMIGFltrkhcfpv41R-22" target="iR6kMIGFltrkhcfpv41R-21">
          <mxGeometry width="50" height="50" relative="1" as="geometry">
            <mxPoint x="175" y="225" as="sourcePoint" />
            <mxPoint x="122" y="400" as="targetPoint" />
          </mxGeometry>
        </mxCell>
        <mxCell id="iR6kMIGFltrkhcfpv41R-32" value="" style="endArrow=none;html=1;rounded=0;fontSize=12;startSize=8;endSize=8;curved=1;exitX=1;exitY=0.5;exitDx=0;exitDy=0;entryX=0;entryY=0.5;entryDx=0;entryDy=0;" edge="1" parent="1" source="iR6kMIGFltrkhcfpv41R-23" target="iR6kMIGFltrkhcfpv41R-21">
          <mxGeometry width="50" height="50" relative="1" as="geometry">
            <mxPoint x="175" y="225" as="sourcePoint" />
            <mxPoint x="225" y="175" as="targetPoint" />
          </mxGeometry>
        </mxCell>
        <mxCell id="iR6kMIGFltrkhcfpv41R-33" value="tiene" style="rhombus;whiteSpace=wrap;html=1;" vertex="1" parent="1">
          <mxGeometry x="290.5" y="362" width="80" height="80" as="geometry" />
        </mxCell>
        <mxCell id="iR6kMIGFltrkhcfpv41R-34" value="" style="endArrow=none;html=1;rounded=0;fontSize=12;startSize=8;endSize=8;curved=1;exitX=1;exitY=0.25;exitDx=0;exitDy=0;entryX=0;entryY=0.5;entryDx=0;entryDy=0;" edge="1" parent="1" source="iR6kMIGFltrkhcfpv41R-21" target="iR6kMIGFltrkhcfpv41R-33">
          <mxGeometry width="50" height="50" relative="1" as="geometry">
            <mxPoint x="253" y="402" as="sourcePoint" />
            <mxPoint x="324.5" y="175" as="targetPoint" />
          </mxGeometry>
        </mxCell>
        <mxCell id="iR6kMIGFltrkhcfpv41R-35" value="producto" style="rounded=0;whiteSpace=wrap;html=1;" vertex="1" parent="1">
          <mxGeometry x="270.5" y="267" width="120" height="60" as="geometry" />
        </mxCell>
        <mxCell id="iR6kMIGFltrkhcfpv41R-36" value="" style="endArrow=none;html=1;rounded=0;fontSize=12;startSize=8;endSize=8;curved=1;exitX=0.5;exitY=0;exitDx=0;exitDy=0;entryX=0.5;entryY=1;entryDx=0;entryDy=0;" edge="1" parent="1" source="iR6kMIGFltrkhcfpv41R-33" target="iR6kMIGFltrkhcfpv41R-35">
          <mxGeometry width="50" height="50" relative="1" as="geometry">
            <mxPoint x="329.5" y="351" as="sourcePoint" />
            <mxPoint x="324.5" y="175" as="targetPoint" />
          </mxGeometry>
        </mxCell>
        <mxCell id="iR6kMIGFltrkhcfpv41R-37" style="edgeStyle=none;curved=1;rounded=0;orthogonalLoop=1;jettySize=auto;html=1;exitX=1;exitY=0;exitDx=0;exitDy=0;fontSize=12;startSize=8;endSize=8;" edge="1" parent="1" source="iR6kMIGFltrkhcfpv41R-35" target="iR6kMIGFltrkhcfpv41R-35">
          <mxGeometry relative="1" as="geometry" />
        </mxCell>
        <mxCell id="iR6kMIGFltrkhcfpv41R-38" value="idProducto" style="ellipse;whiteSpace=wrap;html=1;" vertex="1" parent="1">
          <mxGeometry x="426.5" y="204" width="94" height="65" as="geometry" />
        </mxCell>
        <mxCell id="iR6kMIGFltrkhcfpv41R-39" value="" style="endArrow=none;html=1;rounded=0;fontSize=12;startSize=8;endSize=8;curved=1;entryX=0;entryY=0.5;entryDx=0;entryDy=0;exitX=1;exitY=0;exitDx=0;exitDy=0;" edge="1" parent="1" source="iR6kMIGFltrkhcfpv41R-35" target="iR6kMIGFltrkhcfpv41R-38">
          <mxGeometry width="50" height="50" relative="1" as="geometry">
            <mxPoint x="274.5" y="225" as="sourcePoint" />
            <mxPoint x="324.5" y="175" as="targetPoint" />
          </mxGeometry>
        </mxCell>
        <mxCell id="iR6kMIGFltrkhcfpv41R-40" value="nombre" style="ellipse;whiteSpace=wrap;html=1;" vertex="1" parent="1">
          <mxGeometry x="428" y="276" width="91" height="68" as="geometry" />
        </mxCell>
        <mxCell id="iR6kMIGFltrkhcfpv41R-41" value="" style="endArrow=none;html=1;rounded=0;fontSize=12;startSize=8;endSize=8;curved=1;exitX=0;exitY=0.5;exitDx=0;exitDy=0;entryX=1;entryY=0.5;entryDx=0;entryDy=0;" edge="1" parent="1" source="iR6kMIGFltrkhcfpv41R-40" target="iR6kMIGFltrkhcfpv41R-35">
          <mxGeometry width="50" height="50" relative="1" as="geometry">
            <mxPoint x="274.5" y="225" as="sourcePoint" />
            <mxPoint x="324.5" y="175" as="targetPoint" />
          </mxGeometry>
        </mxCell>
        <mxCell id="iR6kMIGFltrkhcfpv41R-42" value="stock" style="ellipse;whiteSpace=wrap;html=1;" vertex="1" parent="1">
          <mxGeometry x="433.5" y="359" width="87" height="64" as="geometry" />
        </mxCell>
        <mxCell id="iR6kMIGFltrkhcfpv41R-43" value="" style="endArrow=none;html=1;rounded=0;fontSize=12;startSize=8;endSize=8;curved=1;entryX=0;entryY=0;entryDx=0;entryDy=0;exitX=1;exitY=1;exitDx=0;exitDy=0;" edge="1" parent="1" source="iR6kMIGFltrkhcfpv41R-35" target="iR6kMIGFltrkhcfpv41R-42">
          <mxGeometry width="50" height="50" relative="1" as="geometry">
            <mxPoint x="274.5" y="225" as="sourcePoint" />
            <mxPoint x="324.5" y="175" as="targetPoint" />
          </mxGeometry>
        </mxCell>
        <mxCell id="iR6kMIGFltrkhcfpv41R-45" value="nacionalidad" style="rhombus;whiteSpace=wrap;html=1;" vertex="1" parent="1">
          <mxGeometry x="303" y="-40" width="118" height="80" as="geometry" />
        </mxCell>
        <mxCell id="iR6kMIGFltrkhcfpv41R-46" value="" style="endArrow=none;html=1;rounded=0;fontSize=12;startSize=8;endSize=8;curved=1;entryX=0;entryY=0.5;entryDx=0;entryDy=0;exitX=1;exitY=0.5;exitDx=0;exitDy=0;" edge="1" parent="1" source="iR6kMIGFltrkhcfpv41R-1" target="iR6kMIGFltrkhcfpv41R-45">
          <mxGeometry width="50" height="50" relative="1" as="geometry">
            <mxPoint x="236" y="225" as="sourcePoint" />
            <mxPoint x="286" y="175" as="targetPoint" />
          </mxGeometry>
        </mxCell>
        <mxCell id="iR6kMIGFltrkhcfpv41R-47" value="pais" style="rounded=0;whiteSpace=wrap;html=1;" vertex="1" parent="1">
          <mxGeometry x="315" y="75" width="94" height="50" as="geometry" />
        </mxCell>
        <mxCell id="iR6kMIGFltrkhcfpv41R-48" value="" style="endArrow=none;html=1;rounded=0;fontSize=12;startSize=8;endSize=8;curved=1;entryX=0.5;entryY=1;entryDx=0;entryDy=0;exitX=0.5;exitY=0;exitDx=0;exitDy=0;" edge="1" parent="1" source="iR6kMIGFltrkhcfpv41R-47" target="iR6kMIGFltrkhcfpv41R-45">
          <mxGeometry width="50" height="50" relative="1" as="geometry">
            <mxPoint x="236" y="225" as="sourcePoint" />
            <mxPoint x="286" y="175" as="targetPoint" />
          </mxGeometry>
        </mxCell>
        <mxCell id="iR6kMIGFltrkhcfpv41R-49" value="idPais" style="ellipse;whiteSpace=wrap;html=1;" vertex="1" parent="1">
          <mxGeometry x="451" y="22" width="80" height="59" as="geometry" />
        </mxCell>
        <mxCell id="iR6kMIGFltrkhcfpv41R-51" value="nombre" style="ellipse;whiteSpace=wrap;html=1;" vertex="1" parent="1">
          <mxGeometry x="451" y="94" width="81" height="53" as="geometry" />
        </mxCell>
        <mxCell id="iR6kMIGFltrkhcfpv41R-52" value="" style="endArrow=none;html=1;rounded=0;fontSize=12;startSize=8;endSize=8;curved=1;entryX=0;entryY=0.5;entryDx=0;entryDy=0;exitX=1;exitY=0;exitDx=0;exitDy=0;" edge="1" parent="1" source="iR6kMIGFltrkhcfpv41R-47" target="iR6kMIGFltrkhcfpv41R-49">
          <mxGeometry width="50" height="50" relative="1" as="geometry">
            <mxPoint x="236" y="225" as="sourcePoint" />
            <mxPoint x="286" y="175" as="targetPoint" />
          </mxGeometry>
        </mxCell>
        <mxCell id="iR6kMIGFltrkhcfpv41R-53" value="" style="endArrow=none;html=1;rounded=0;fontSize=12;startSize=8;endSize=8;curved=1;entryX=0;entryY=0.5;entryDx=0;entryDy=0;" edge="1" parent="1" source="iR6kMIGFltrkhcfpv41R-47" target="iR6kMIGFltrkhcfpv41R-51">
          <mxGeometry width="50" height="50" relative="1" as="geometry">
            <mxPoint x="236" y="225" as="sourcePoint" />
            <mxPoint x="286" y="175" as="targetPoint" />
          </mxGeometry>
        </mxCell>
        <mxCell id="iR6kMIGFltrkhcfpv41R-54" value="1:1" style="text;html=1;align=center;verticalAlign=middle;resizable=0;points=[];autosize=1;strokeColor=none;fillColor=none;fontSize=16;" vertex="1" parent="1">
          <mxGeometry x="339" y="353.5" width="40" height="31" as="geometry" />
        </mxCell>
        <mxCell id="iR6kMIGFltrkhcfpv41R-55" value="0:N" style="text;html=1;align=center;verticalAlign=middle;resizable=0;points=[];autosize=1;strokeColor=none;fillColor=none;fontSize=16;" vertex="1" parent="1">
          <mxGeometry x="243" y="370" width="43" height="31" as="geometry" />
        </mxCell>
        <mxCell id="iR6kMIGFltrkhcfpv41R-56" value="1:N" style="text;html=1;align=center;verticalAlign=middle;resizable=0;points=[];autosize=1;strokeColor=none;fillColor=none;fontSize=16;" vertex="1" parent="1">
          <mxGeometry x="167" y="359" width="43" height="31" as="geometry" />
        </mxCell>
        <mxCell id="iR6kMIGFltrkhcfpv41R-57" value="1:1" style="text;html=1;align=center;verticalAlign=middle;resizable=0;points=[];autosize=1;strokeColor=none;fillColor=none;fontSize=16;" vertex="1" parent="1">
          <mxGeometry x="170" y="258" width="40" height="31" as="geometry" />
        </mxCell>
        <mxCell id="iR6kMIGFltrkhcfpv41R-58" value="0:N" style="text;html=1;align=center;verticalAlign=middle;resizable=0;points=[];autosize=1;strokeColor=none;fillColor=none;fontSize=16;" vertex="1" parent="1">
          <mxGeometry x="167" y="150" width="43" height="31" as="geometry" />
        </mxCell>
        <mxCell id="iR6kMIGFltrkhcfpv41R-59" value="1:1" style="text;html=1;align=center;verticalAlign=middle;resizable=0;points=[];autosize=1;strokeColor=none;fillColor=none;fontSize=16;" vertex="1" parent="1">
          <mxGeometry x="167" y="33" width="40" height="31" as="geometry" />
        </mxCell>
        <mxCell id="iR6kMIGFltrkhcfpv41R-60" value="0:N" style="text;html=1;align=center;verticalAlign=middle;resizable=0;points=[];autosize=1;strokeColor=none;fillColor=none;fontSize=16;" vertex="1" parent="1">
          <mxGeometry x="252" y="2" width="43" height="31" as="geometry" />
        </mxCell>
        <mxCell id="iR6kMIGFltrkhcfpv41R-61" value="1:1" style="text;html=1;align=center;verticalAlign=middle;resizable=0;points=[];autosize=1;strokeColor=none;fillColor=none;fontSize=16;" vertex="1" parent="1">
          <mxGeometry x="360" y="40" width="40" height="31" as="geometry" />
        </mxCell>
      </root>
    </mxGraphModel>
  </diagram>
</mxfile>
